<?xml version="1.0" standalone="yes"?>

<svg version="1.1" viewBox="0.0 0.0 960.0 720.0" fill="none" stroke="none" stroke-linecap="square" stroke-miterlimit="10" clip-path="url(#p.0)" xmlns="http://www.w3.org/2000/svg" xmlns:xlink="http://www.w3.org/1999/xlink"><clipPath id="p.0"><path d="M0 0L960.0 0L960.0 720.0L0 720.0L0 0Z" clip-rule="nonzero"></path></clipPath><path fill="#cfe2f3" stroke="#000000" stroke-width="2.0" stroke-linejoin="round" stroke-linecap="butt" d="M293.53543 47.574802L442.6063 47.574802L442.6063 137.9685L293.53543 137.9685Z" fill-rule="nonzero"></path><path fill="#000000" d="M346.04028 87.748215L346.04028 85.341965L348.64966 85.341965L348.64966 87.748215L346.04028 87.748215ZM348.64966 89.07634L348.64966 98.623215Q348.64966 100.51384 348.39966 101.28728Q348.14966 102.060715 347.44653 102.498215Q346.7434 102.935715 345.66528 102.935715Q345.27466 102.935715 344.82153 102.8654Q344.3684 102.79509 343.85278 102.654465L344.3059 100.435715Q344.4934 100.466965 344.65747 100.4904Q344.82153 100.51384 344.96216 100.51384Q345.35278 100.51384 345.6106 100.341965Q345.8684 100.17009 345.95435 99.9279Q346.04028 99.685715 346.04028 98.48259L346.04028 89.07634L348.64966 89.07634ZM353.22357 92.091965L350.8642 91.654465Q351.25482 90.23259 352.23138 89.54509Q353.20795 88.85759 355.12982 88.85759Q356.8642 88.85759 357.72357 89.27165Q358.58295 89.685715 358.9267 90.31853Q359.27045 90.95134 359.27045 92.654465L359.2392 95.70134Q359.2392 96.998215 359.3642 97.6154Q359.4892 98.23259 359.83295 98.935715L357.25482 98.935715Q357.16107 98.67009 357.00482 98.17009Q356.94232 97.935715 356.91107 97.85759Q356.25482 98.51384 355.4892 98.83415Q354.72357 99.154465 353.8642 99.154465Q352.34857 99.154465 351.46576 98.33415Q350.58295 97.51384 350.58295 96.248215Q350.58295 95.404465 350.98138 94.75603Q351.37982 94.10759 352.09857 93.75603Q352.81732 93.404465 354.1767 93.13884Q356.00482 92.810715 356.70795 92.51384L356.70795 92.248215Q356.70795 91.498215 356.34076 91.1779Q355.97357 90.85759 354.94232 90.85759Q354.2392 90.85759 353.84857 91.13103Q353.45795 91.404465 353.22357 92.091965ZM356.70795 94.20134Q356.20795 94.373215 355.122 94.60759Q354.03607 94.841965 353.70795 95.060715Q353.19232 95.42009 353.19232 95.98259Q353.19232 96.529465 353.59857 96.9279Q354.00482 97.32634 354.64545 97.32634Q355.34857 97.32634 355.9892 96.85759Q356.45795 96.498215 356.6142 95.998215Q356.70795 95.654465 356.70795 94.716965L356.70795 94.20134ZM364.36493 98.935715L360.39618 89.07634L363.13055 89.07634L364.9743 94.10759L365.52118 95.79509Q365.73993 95.154465 365.7868 94.95134Q365.9118 94.529465 366.06805 94.10759L367.94305 89.07634L370.61493 89.07634L366.70868 98.935715L364.36493 98.935715ZM373.975 92.091965L371.61563 91.654465Q372.00626 90.23259 372.98282 89.54509Q373.95938 88.85759 375.88126 88.85759Q377.61563 88.85759 378.475 89.27165Q379.33438 89.685715 379.67813 90.31853Q380.02188 90.95134 380.02188 92.654465L379.99063 95.70134Q379.99063 96.998215 380.11563 97.6154Q380.24063 98.23259 380.58438 98.935715L378.00626 98.935715Q377.9125 98.67009 377.75626 98.17009Q377.69376 97.935715 377.6625 97.85759Q377.00626 98.51384 376.24063 98.83415Q375.475 99.154465 374.61563 99.154465Q373.1 99.154465 372.2172 98.33415Q371.33438 97.51384 371.33438 96.248215Q371.33438 95.404465 371.73282 94.75603Q372.13126 94.10759 372.85 93.75603Q373.56876 93.404465 374.92813 93.13884Q376.75626 92.810715 377.45938 92.51384L377.45938 92.248215Q377.45938 91.498215 377.0922 91.1779Q376.725 90.85759 375.69376 90.85759Q374.99063 90.85759 374.6 91.13103Q374.20938 91.404465 373.975 92.091965ZM377.45938 94.20134Q376.95938 94.373215 375.87344 94.60759Q374.7875 94.841965 374.45938 95.060715Q373.94376 95.42009 373.94376 95.98259Q373.94376 96.529465 374.35 96.9279Q374.75626 97.32634 375.39688 97.32634Q376.1 97.32634 376.74063 96.85759Q377.20938 96.498215 377.36563 95.998215Q377.45938 95.654465 377.45938 94.716965L377.45938 94.20134ZM390.99136 91.998215L388.42886 92.466965Q388.28824 91.685715 387.8351 91.29509Q387.382 90.904465 386.6476 90.904465Q385.66324 90.904465 385.0851 91.57634Q384.507 92.248215 384.507 93.82634Q384.507 95.591965 385.09293 96.310715Q385.67886 97.029465 386.67886 97.029465Q387.42886 97.029465 387.8976 96.60759Q388.36636 96.185715 388.5695 95.154465L391.11636 95.591965Q390.72574 97.35759 389.59293 98.25603Q388.4601 99.154465 386.55386 99.154465Q384.3976 99.154465 383.10855 97.79509Q381.8195 96.435715 381.8195 94.01384Q381.8195 91.57634 383.11636 90.216965Q384.41324 88.85759 386.60074 88.85759Q388.3976 88.85759 389.4601 89.63103Q390.5226 90.404465 390.99136 91.998215Z" fill-rule="nonzero"></path><path fill="#cfe2f3" stroke="#000000" stroke-width="2.0" stroke-linejoin="round" stroke-linecap="butt" d="M74.67979 68.9895L223.75066 68.9895L223.75066 159.38321L74.67979 159.38321Z" fill-rule="nonzero"></path><path fill="#000000" d="M123.35303 117.41291L125.00928 117.147285Q125.1499 118.147285 125.782715 118.67072Q126.41553 119.19416 127.55615 119.19416Q128.7124 119.19416 129.26709 118.72541Q129.82178 118.25666 129.82178 117.63166Q129.82178 117.06916 129.3374 116.741035Q128.99365 116.522285 127.63428 116.178535Q125.79053 115.709785 125.07959 115.37385Q124.36865 115.03791 124.001465 114.43635Q123.63428 113.834785 123.63428 113.116035Q123.63428 112.459785 123.938965 111.897285Q124.24365 111.334785 124.75928 110.959785Q125.1499 110.678535 125.82178 110.47541Q126.49365 110.272285 127.25928 110.272285Q128.43115 110.272285 129.30615 110.60822Q130.18115 110.94416 130.59521 111.51447Q131.00928 112.084785 131.16553 113.03791L129.54053 113.25666Q129.43115 112.50666 128.89209 112.07697Q128.35303 111.647285 127.38428 111.647285Q126.22803 111.647285 125.74365 112.0301Q125.25928 112.41291 125.25928 112.91291Q125.25928 113.241035 125.4624 113.50666Q125.66553 113.772285 126.10303 113.94416Q126.35303 114.03791 127.57178 114.38166Q129.3374 114.85041 130.04053 115.147285Q130.74365 115.44416 131.14209 116.022285Q131.54053 116.60041 131.54053 117.459785Q131.54053 118.28791 131.05615 119.0301Q130.57178 119.772285 129.6499 120.17072Q128.72803 120.56916 127.57178 120.56916Q125.6499 120.56916 124.64209 119.772285Q123.63428 118.97541 123.35303 117.41291ZM139.79053 116.741035L141.43115 116.959785Q141.16553 118.647285 140.05615 119.60822Q138.94678 120.56916 137.32178 120.56916Q135.30615 120.56916 134.07959 119.24885Q132.85303 117.928535 132.85303 115.459785Q132.85303 113.866035 133.37646 112.67072Q133.8999 111.47541 134.98584 110.87385Q136.07178 110.272285 137.3374 110.272285Q138.94678 110.272285 139.9624 111.084785Q140.97803 111.897285 141.2749 113.397285L139.6499 113.647285Q139.41553 112.647285 138.82178 112.147285Q138.22803 111.647285 137.3999 111.647285Q136.13428 111.647285 135.34521 112.553535Q134.55615 113.459785 134.55615 115.41291Q134.55615 117.397285 135.32178 118.29572Q136.0874 119.19416 137.30615 119.19416Q138.29053 119.19416 138.94678 118.5926Q139.60303 117.991035 139.79053 116.741035ZM149.11865 119.13166Q148.18115 119.928535 147.32178 120.24885Q146.4624 120.56916 145.47803 120.56916Q143.86865 120.56916 142.99365 119.7801Q142.11865 118.991035 142.11865 117.75666Q142.11865 117.022285 142.44678 116.428535Q142.7749 115.834785 143.30615 115.47541Q143.8374 115.116035 144.50928 114.928535Q145.00928 114.78791 145.99365 114.678535Q148.0249 114.428535 148.97803 114.10041Q148.97803 113.75666 148.97803 113.66291Q148.97803 112.647285 148.50928 112.22541Q147.86865 111.66291 146.60303 111.66291Q145.43115 111.66291 144.86865 112.06916Q144.30615 112.47541 144.04053 113.53791L142.3999 113.303535Q142.63428 112.25666 143.14209 111.616035Q143.6499 110.97541 144.61084 110.62385Q145.57178 110.272285 146.85303 110.272285Q148.11865 110.272285 148.8999 110.56916Q149.68115 110.866035 150.05615 111.31916Q150.43115 111.772285 150.57178 112.459785Q150.66553 112.88166 150.66553 113.991035L150.66553 116.22541Q150.66553 118.553535 150.76709 119.17072Q150.86865 119.78791 151.19678 120.35041L149.44678 120.35041Q149.18115 119.834785 149.11865 119.13166ZM148.97803 115.41291Q148.07178 115.772285 146.24365 116.03791Q145.2124 116.178535 144.79053 116.366035Q144.36865 116.553535 144.13428 116.91291Q143.8999 117.272285 143.8999 117.709785Q143.8999 118.38166 144.40771 118.82697Q144.91553 119.272285 145.88428 119.272285Q146.85303 119.272285 147.60303 118.8426Q148.35303 118.41291 148.7124 117.69416Q148.97803 117.116035 148.97803 116.022285L148.97803 115.41291ZM153.02562 120.35041L153.02562 106.75666L154.6975 106.75666L154.6975 120.35041L153.02562 120.35041ZM163.63919 119.13166Q162.70169 119.928535 161.84232 120.24885Q160.98294 120.56916 159.99857 120.56916Q158.38919 120.56916 157.51419 119.7801Q156.63919 118.991035 156.63919 117.75666Q156.63919 117.022285 156.96732 116.428535Q157.29544 115.834785 157.82669 115.47541Q158.35794 115.116035 159.02982 114.928535Q159.52982 114.78791 160.51419 114.678535Q162.54544 114.428535 163.49857 114.10041Q163.49857 113.75666 163.49857 113.66291Q163.49857 112.647285 163.02982 112.22541Q162.38919 111.66291 161.12357 111.66291Q159.95169 111.66291 159.38919 112.06916Q158.82669 112.47541 158.56107 113.53791L156.92044 113.303535Q157.15482 112.25666 157.66263 111.616035Q158.17044 110.97541 159.13138 110.62385Q160.09232 110.272285 161.37357 110.272285Q162.63919 110.272285 163.42044 110.56916Q164.20169 110.866035 164.57669 111.31916Q164.95169 111.772285 165.09232 112.459785Q165.18607 112.88166 165.18607 113.991035L165.18607 116.22541Q165.18607 118.553535 165.28763 119.17072Q165.38919 119.78791 165.71732 120.35041L163.96732 120.35041Q163.70169 119.834785 163.63919 119.13166ZM163.49857 115.41291Q162.59232 115.772285 160.76419 116.03791Q159.73294 116.178535 159.31107 116.366035Q158.88919 116.553535 158.65482 116.91291Q158.42044 117.272285 158.42044 117.709785Q158.42044 118.38166 158.92825 118.82697Q159.43607 119.272285 160.40482 119.272285Q161.37357 119.272285 162.12357 118.8426Q162.87357 118.41291 163.23294 117.69416Q163.49857 117.116035 163.49857 116.022285L163.49857 115.41291ZM174.01491 116.741035L175.65553 116.959785Q175.38991 118.647285 174.28053 119.60822Q173.17116 120.56916 171.54616 120.56916Q169.53053 120.56916 168.30397 119.24885Q167.07741 117.928535 167.07741 115.459785Q167.07741 113.866035 167.60085 112.67072Q168.12428 111.47541 169.21022 110.87385Q170.29616 110.272285 171.56178 110.272285Q173.17116 110.272285 174.18678 111.084785Q175.20241 111.897285 175.49928 113.397285L173.87428 113.647285Q173.63991 112.647285 173.04616 112.147285Q172.45241 111.647285 171.62428 111.647285Q170.35866 111.647285 169.5696 112.553535Q168.78053 113.459785 168.78053 115.41291Q168.78053 117.397285 169.54616 118.29572Q170.31178 119.19416 171.53053 119.19416Q172.51491 119.19416 173.17116 118.5926Q173.82741 117.991035 174.01491 116.741035Z" fill-rule="nonzero"></path><path fill="#cfe2f3" stroke="#000000" stroke-width="2.0" stroke-linejoin="round" stroke-linecap="butt" d="M44.545933 326.6299L193.61679 326.6299L193.61679 417.02362L44.545933 417.02362Z" fill-rule="nonzero"></path><path fill="#000000" d="M92.34243 377.99084L92.34243 368.13147L93.84243 368.13147L93.84243 369.5221Q94.295555 368.80334 95.06899 368.35803Q95.84243 367.91272 96.826805 367.91272Q97.920555 367.91272 98.62368 368.36584Q99.326805 368.81897 99.608055 369.6471Q100.77993 367.91272 102.65493 367.91272Q104.12368 367.91272 104.91274 368.72522Q105.701805 369.53772 105.701805 371.22522L105.701805 377.99084L104.02993 377.99084L104.02993 371.78772Q104.02993 370.78772 103.87368 370.3424Q103.71743 369.8971 103.28774 369.63147Q102.858055 369.36584 102.27993 369.36584Q101.24868 369.36584 100.56118 370.05334Q99.87368 370.74084 99.87368 372.2721L99.87368 377.99084L98.201805 377.99084L98.201805 371.5846Q98.201805 370.47522 97.795555 369.92053Q97.389305 369.36584 96.451805 369.36584Q95.74868 369.36584 95.14712 369.73303Q94.545555 370.10022 94.27993 370.81897Q94.014305 371.53772 94.014305 372.88147L94.014305 377.99084L92.34243 377.99084ZM107.89886 366.30334L107.89886 364.3971L109.57073 364.3971L109.57073 366.30334L107.89886 366.30334ZM107.89886 377.99084L107.89886 368.13147L109.57073 368.13147L109.57073 377.99084L107.89886 377.99084ZM112.01243 377.99084L112.01243 368.13147L113.51243 368.13147L113.51243 369.63147Q114.09055 368.5846 114.57493 368.24866Q115.0593 367.91272 115.65305 367.91272Q116.4968 367.91272 117.3718 368.4596L116.79368 370.00647Q116.1843 369.6471 115.5593 369.6471Q115.01243 369.6471 114.58274 369.97522Q114.15305 370.30334 113.96555 370.88147Q113.6843 371.7721 113.6843 372.8346L113.6843 377.99084L112.01243 377.99084ZM124.67823 376.7721Q123.74073 377.56897 122.881355 377.88928Q122.02198 378.2096 121.037605 378.2096Q119.42823 378.2096 118.55323 377.42053Q117.67823 376.63147 117.67823 375.3971Q117.67823 374.66272 118.006355 374.06897Q118.33448 373.47522 118.86573 373.11584Q119.39698 372.75647 120.068855 372.56897Q120.568855 372.42834 121.55323 372.31897Q123.58448 372.06897 124.537605 371.74084Q124.537605 371.3971 124.537605 371.30334Q124.537605 370.28772 124.068855 369.86584Q123.42823 369.30334 122.162605 369.30334Q120.99073 369.30334 120.42823 369.7096Q119.86573 370.11584 119.600105 371.17834L117.95948 370.94397Q118.193855 369.8971 118.70167 369.25647Q119.20948 368.61584 120.17042 368.26428Q121.131355 367.91272 122.412605 367.91272Q123.67823 367.91272 124.45948 368.2096Q125.24073 368.50647 125.61573 368.9596Q125.99073 369.41272 126.131355 370.10022Q126.225105 370.5221 126.225105 371.63147L126.225105 373.86584Q126.225105 376.19397 126.32667 376.81116Q126.42823 377.42834 126.756355 377.99084L125.006355 377.99084Q124.74073 377.47522 124.67823 376.7721ZM124.537605 373.05334Q123.631355 373.41272 121.80323 373.67834Q120.77198 373.81897 120.350105 374.00647Q119.92823 374.19397 119.693855 374.55334Q119.45948 374.91272 119.45948 375.35022Q119.45948 376.0221 119.96729 376.4674Q120.475105 376.91272 121.443855 376.91272Q122.412605 376.91272 123.162605 376.48303Q123.912605 376.05334 124.27198 375.3346Q124.537605 374.75647 124.537605 373.66272L124.537605 373.05334ZM128.61646 377.99084L128.61646 364.3971L130.28833 364.3971L130.28833 369.2721Q131.4602 367.91272 133.24146 367.91272Q134.3352 367.91272 135.1399 368.3424Q135.94458 368.7721 136.29614 369.53772Q136.6477 370.30334 136.6477 371.74084L136.6477 377.99084L134.97583 377.99084L134.97583 371.74084Q134.97583 370.49084 134.42896 369.92053Q133.88208 369.35022 132.8977 369.35022Q132.1477 369.35022 131.49927 369.73303Q130.85083 370.11584 130.56958 370.7799Q130.28833 371.44397 130.28833 372.60022L130.28833 377.99084L128.61646 377.99084ZM145.42967 374.38147L147.0703 374.60022Q146.80467 376.28772 145.6953 377.24866Q144.58592 378.2096 142.96092 378.2096Q140.9453 378.2096 139.71873 376.88928Q138.49217 375.56897 138.49217 373.10022Q138.49217 371.50647 139.01561 370.31116Q139.53905 369.11584 140.62498 368.51428Q141.71092 367.91272 142.97655 367.91272Q144.58592 367.91272 145.60155 368.72522Q146.61717 369.53772 146.91405 371.03772L145.28905 371.28772Q145.05467 370.28772 144.46092 369.78772Q143.86717 369.28772 143.03905 369.28772Q141.77342 369.28772 140.98436 370.19397Q140.1953 371.10022 140.1953 373.05334Q140.1953 375.03772 140.96092 375.93616Q141.72655 376.8346 142.9453 376.8346Q143.92967 376.8346 144.58592 376.23303Q145.24217 375.63147 145.42967 374.38147Z" fill-rule="nonzero"></path><path fill="#cfe2f3" stroke="#000000" stroke-width="2.0" stroke-linejoin="round" stroke-linecap="butt" d="M203.85695 417.02362L352.92783 417.02362L352.92783 507.41733L203.85695 507.41733Z" fill-rule="nonzero"></path><path fill="#000000" d="M258.60107 464.77515L260.2417 464.9939Q259.97607 466.6814 258.8667 467.64233Q257.75732 468.60327 256.13232 468.60327Q254.11671 468.60327 252.89015 467.28296Q251.66359 465.96265 251.66359 463.4939Q251.66359 461.90015 252.18703 460.70483Q252.71046 459.50952 253.7964 458.90796Q254.88234 458.3064 256.14795 458.3064Q257.75732 458.3064 258.77295 459.1189Q259.78857 459.9314 260.08545 461.4314L258.46045 461.6814Q258.22607 460.6814 257.63232 460.1814Q257.03857 459.6814 256.21045 459.6814Q254.94484 459.6814 254.15578 460.58765Q253.36671 461.4939 253.36671 463.44702Q253.36671 465.4314 254.13234 466.32983Q254.89796 467.22827 256.1167 467.22827Q257.10107 467.22827 257.75732 466.6267Q258.41357 466.02515 258.60107 464.77515ZM261.46045 468.38452L261.46045 454.79077L263.13232 454.79077L263.13232 468.38452L261.46045 468.38452ZM265.01154 463.46265Q265.01154 460.72827 266.5428 459.40015Q267.8084 458.3064 269.63654 458.3064Q271.6678 458.3064 272.95685 459.64233Q274.2459 460.97827 274.2459 463.32202Q274.2459 465.22827 273.6756 466.3142Q273.1053 467.40015 272.01935 468.0017Q270.9334 468.60327 269.63654 468.60327Q267.57404 468.60327 266.2928 467.27515Q265.01154 465.94702 265.01154 463.46265ZM266.7303 463.46265Q266.7303 465.35327 267.5584 466.29077Q268.38654 467.22827 269.63654 467.22827Q270.88654 467.22827 271.70685 466.28296Q272.52716 465.33765 272.52716 463.40015Q272.52716 461.57202 271.69904 460.63452Q270.8709 459.69702 269.63654 459.69702Q268.38654 459.69702 267.5584 460.63452Q266.7303 461.57202 266.7303 463.46265ZM276.01224 456.72827L276.01224 454.79077L277.6685 454.79077L277.6685 456.72827L276.01224 456.72827ZM273.88724 472.21265L274.19974 470.79077Q274.69974 470.91577 274.9966 470.91577Q275.51224 470.91577 275.76224 470.57983Q276.01224 470.2439 276.01224 468.88452L276.01224 458.52515L277.6685 458.52515L277.6685 468.91577Q277.6685 470.7439 277.19974 471.46265Q276.606 472.38452 275.19974 472.38452Q274.52786 472.38452 273.88724 472.21265ZM286.6102 468.38452L286.6102 466.9314Q285.46957 468.60327 283.4852 468.60327Q282.62582 468.60327 281.868 468.26733Q281.1102 467.9314 280.743 467.4314Q280.37582 466.9314 280.21957 466.19702Q280.12582 465.69702 280.12582 464.63452L280.12582 458.52515L281.7977 458.52515L281.7977 463.9939Q281.7977 465.3064 281.89145 465.75952Q282.0477 466.41577 282.56332 466.79077Q283.07895 467.16577 283.82895 467.16577Q284.57895 467.16577 285.2352 466.78296Q285.89145 466.40015 286.1649 465.73608Q286.43832 465.07202 286.43832 463.8064L286.43832 458.52515L288.1102 458.52515L288.1102 468.38452L286.6102 468.38452ZM290.51715 468.38452L290.51715 458.52515L292.01715 458.52515L292.01715 460.02515Q292.59528 458.97827 293.07965 458.64233Q293.56403 458.3064 294.15778 458.3064Q295.00153 458.3064 295.87653 458.85327L295.2984 460.40015Q294.68903 460.04077 294.06403 460.04077Q293.51715 460.04077 293.08746 460.3689Q292.65778 460.69702 292.47028 461.27515Q292.18903 462.16577 292.18903 463.22827L292.18903 468.38452L290.51715 468.38452ZM303.49545 465.21265L305.2142 465.4314Q304.80795 466.9314 303.7064 467.76733Q302.60483 468.60327 300.88608 468.60327Q298.72983 468.60327 297.4642 467.27515Q296.19858 465.94702 296.19858 463.54077Q296.19858 461.0564 297.47202 459.6814Q298.74545 458.3064 300.79233 458.3064Q302.7767 458.3064 304.0267 459.65015Q305.2767 460.9939 305.2767 463.44702Q305.2767 463.58765 305.26108 463.88452L297.91733 463.88452Q298.01108 465.50952 298.8392 466.3689Q299.66733 467.22827 300.9017 467.22827Q301.80795 467.22827 302.4564 466.7517Q303.10483 466.27515 303.49545 465.21265ZM298.01108 462.50952L303.51108 462.50952Q303.4017 461.27515 302.88608 460.65015Q302.0892 459.6814 300.80795 459.6814Q299.66733 459.6814 298.87827 460.45483Q298.0892 461.22827 298.01108 462.50952Z" fill-rule="nonzero"></path><path fill="#cfe2f3" stroke="#000000" stroke-width="2.0" stroke-linejoin="round" stroke-linecap="butt" d="M258.4987 215.96588L407.56955 215.96588L407.56955 306.3596L258.4987 306.3596Z" fill-rule="nonzero"></path><path fill="#000000" d="M276.60754 243.00648L279.34192 243.00648L279.34192 251.61586Q279.34192 253.30336 279.04504 254.20961Q278.6388 255.39711 277.59192 256.11584Q276.54504 256.8346 274.8263 256.8346Q272.81067 256.8346 271.72473 255.70961Q270.6388 254.58461 270.6388 252.39711L273.21692 252.10023Q273.2638 253.27211 273.56067 253.75648Q274.0138 254.49086 274.92004 254.49086Q275.84192 254.49086 276.22473 253.96742Q276.60754 253.44398 276.60754 251.78773L276.60754 243.00648ZM285.54578 256.60022L280.67078 243.00648L283.65515 243.00648L287.09265 253.06898L290.42078 243.00648L293.34265 243.00648L288.46765 256.60022L285.54578 256.60022ZM294.47372 256.60022L294.47372 243.00648L298.5831 243.00648L301.05185 252.27211L303.48935 243.00648L307.61435 243.00648L307.61435 256.60022L305.06747 256.60022L305.06747 245.89711L302.36435 256.60022L299.72372 256.60022L297.0206 245.89711L297.0206 256.60022L294.47372 256.60022ZM315.10406 256.60022L315.10406 243.00648L317.71344 243.00648L317.71344 247.89711Q318.91656 246.52211 320.5728 246.52211Q322.3697 246.52211 323.54938 247.8268Q324.72906 249.13148 324.72906 251.56898Q324.72906 254.10023 323.52594 255.45961Q322.3228 256.81897 320.60406 256.81897Q319.7603 256.81897 318.94 256.3971Q318.1197 255.97523 317.52594 255.14711L317.52594 256.60022L315.10406 256.60022ZM317.6978 251.45961Q317.6978 252.99086 318.1822 253.72523Q318.85406 254.75648 319.97906 254.75648Q320.83844 254.75648 321.4478 254.02211Q322.0572 253.28773 322.0572 251.69398Q322.0572 250.00648 321.4478 249.2643Q320.83844 248.52211 319.8697 248.52211Q318.9322 248.52211 318.315 249.24867Q317.6978 249.97523 317.6978 251.45961ZM325.37506 246.74086L328.1563 246.74086L330.5157 253.74086L332.81256 246.74086L335.5157 246.74086L332.0313 256.22522L331.4063 257.94397Q331.06256 258.80334 330.75787 259.26428Q330.4532 259.72522 330.04694 260.00647Q329.6407 260.28772 329.04694 260.44397Q328.4532 260.60022 327.7188 260.60022Q326.9688 260.60022 326.25006 260.44397L326.0157 258.3971Q326.62506 258.5221 327.10944 258.5221Q328.0313 258.5221 328.461 257.99084Q328.8907 257.4596 329.12506 256.63147L325.37506 246.74086ZM341.50076 246.74086L341.50076 248.81898L339.7195 248.81898L339.7195 252.80336Q339.7195 254.00648 339.7742 254.2018Q339.8289 254.39711 340.00858 254.52992Q340.18826 254.66273 340.4539 254.66273Q340.81326 254.66273 341.50076 254.41273L341.7195 256.42834Q340.81326 256.81897 339.657 256.81897Q338.9539 256.81897 338.3914 256.5846Q337.8289 256.35022 337.56326 255.97523Q337.29764 255.60023 337.18826 254.95961Q337.11014 254.50648 337.11014 253.11586L337.11014 248.81898L335.907 248.81898L335.907 246.74086L337.11014 246.74086L337.11014 244.78773L339.7195 243.27211L339.7195 246.74086L341.50076 246.74086ZM348.90094 253.45961L351.5103 253.89711Q351.0103 255.33461 349.92438 256.07678Q348.83844 256.81897 347.21344 256.81897Q344.65094 256.81897 343.41656 255.14711Q342.4478 253.80336 342.4478 251.74086Q342.4478 249.30336 343.72125 247.91273Q344.9947 246.52211 346.96344 246.52211Q349.15094 246.52211 350.42438 247.97523Q351.6978 249.42836 351.65094 252.42836L345.1197 252.42836Q345.1353 253.58461 345.7447 254.23305Q346.35406 254.88148 347.2447 254.88148Q347.85406 254.88148 348.27594 254.54555Q348.6978 254.20961 348.90094 253.45961ZM349.0572 250.83461Q349.02594 249.69398 348.47125 249.10805Q347.91656 248.52211 347.1197 248.52211Q346.2603 248.52211 345.71344 249.14711Q345.15094 249.75648 345.16656 250.83461L349.0572 250.83461ZM362.1673 249.66273L359.6048 250.13148Q359.46417 249.35023 359.01105 248.95961Q358.55792 248.56898 357.82355 248.56898Q356.83917 248.56898 356.26105 249.24086Q355.68292 249.91273 355.68292 251.49086Q355.68292 253.25648 356.26886 253.97523Q356.8548 254.69398 357.8548 254.69398Q358.6048 254.69398 359.07355 254.27211Q359.5423 253.85023 359.74542 252.81898L362.2923 253.25648Q361.90167 255.02211 360.76886 255.92055Q359.63605 256.81897 357.7298 256.81897Q355.57355 256.81897 354.2845 255.45961Q352.99542 254.10023 352.99542 251.67836Q352.99542 249.24086 354.2923 247.88148Q355.58917 246.52211 357.77667 246.52211Q359.57355 246.52211 360.63605 247.29555Q361.69855 248.06898 362.1673 249.66273ZM363.3555 251.53773Q363.3555 250.24086 363.99612 249.02211Q364.63675 247.80336 365.80862 247.16273Q366.9805 246.52211 368.418 246.52211Q370.668 246.52211 372.08987 247.97523Q373.51175 249.42836 373.51175 251.64711Q373.51175 253.88148 372.07425 255.35023Q370.63675 256.81897 368.44925 256.81897Q367.08987 256.81897 365.8633 256.2096Q364.63675 255.60023 363.99612 254.41273Q363.3555 253.22523 363.3555 251.53773ZM366.02737 251.67836Q366.02737 253.14711 366.7227 253.92055Q367.418 254.69398 368.43362 254.69398Q369.44925 254.69398 370.14456 253.92055Q370.83987 253.14711 370.83987 251.66273Q370.83987 250.20961 370.14456 249.42836Q369.44925 248.64711 368.43362 248.64711Q367.418 248.64711 366.7227 249.42836Q366.02737 250.20961 366.02737 251.67836ZM384.39212 256.60022L381.97025 256.60022L381.97025 255.14711Q381.36087 255.99086 380.54056 256.4049Q379.72025 256.81897 378.89212 256.81897Q377.189 256.81897 375.97806 255.4518Q374.76712 254.08461 374.76712 251.63148Q374.76712 249.13148 375.9468 247.8268Q377.1265 246.52211 378.92337 246.52211Q380.57962 246.52211 381.78275 247.89711L381.78275 243.00648L384.39212 243.00648L384.39212 256.60022ZM377.42337 251.45961Q377.42337 253.03773 377.86087 253.74086Q378.5015 254.75648 379.6265 254.75648Q380.53275 254.75648 381.15775 253.99086Q381.78275 253.22523 381.78275 251.70961Q381.78275 250.00648 381.17337 249.2643Q380.564 248.52211 379.61087 248.52211Q378.67337 248.52211 378.04837 249.25648Q377.42337 249.99086 377.42337 251.45961ZM392.44434 253.45961L395.0537 253.89711Q394.5537 255.33461 393.46777 256.07678Q392.38184 256.81897 390.75684 256.81897Q388.19434 256.81897 386.95996 255.14711Q385.9912 253.80336 385.9912 251.74086Q385.9912 249.30336 387.26465 247.91273Q388.5381 246.52211 390.50684 246.52211Q392.69434 246.52211 393.96777 247.97523Q395.2412 249.42836 395.19434 252.42836L388.6631 252.42836Q388.6787 253.58461 389.2881 254.23305Q389.89746 254.88148 390.7881 254.88148Q391.39746 254.88148 391.81934 254.54555Q392.2412 254.20961 392.44434 253.45961ZM392.6006 250.83461Q392.56934 249.69398 392.01465 249.10805Q391.45996 248.52211 390.6631 248.52211Q389.8037 248.52211 389.25684 249.14711Q388.69434 249.75648 388.70996 250.83461L392.6006 250.83461Z" fill-rule="nonzero"></path><path fill="#000000" d="M306.5742 282.05334L304.7773 282.05334Q303.37106 279.91272 302.62888 277.60022Q301.8867 275.28772 301.8867 273.13147Q301.8867 270.44397 302.79294 268.05334Q303.5898 265.97522 304.8242 264.22522L306.60544 264.22522Q305.3242 267.03772 304.84763 269.00647Q304.37106 270.97522 304.37106 273.17834Q304.37106 274.7096 304.6523 276.30334Q304.93356 277.8971 305.43356 279.3346Q305.7617 280.28772 306.5742 282.05334ZM308.45874 278.05334L308.45874 275.44397L311.0681 275.44397L311.0681 278.05334L308.45874 278.05334ZM322.2358 271.11584L319.6733 271.5846Q319.53268 270.80334 319.07956 270.41272Q318.62643 270.0221 317.89206 270.0221Q316.90768 270.0221 316.32956 270.69397Q315.75143 271.36584 315.75143 272.94397Q315.75143 274.7096 316.33737 275.42834Q316.9233 276.1471 317.9233 276.1471Q318.6733 276.1471 319.14206 275.72522Q319.6108 275.30334 319.81393 274.2721L322.3608 274.7096Q321.97018 276.47522 320.83737 277.37366Q319.70456 278.2721 317.7983 278.2721Q315.64206 278.2721 314.353 276.91272Q313.06393 275.55334 313.06393 273.13147Q313.06393 270.69397 314.3608 269.3346Q315.65768 267.97522 317.84518 267.97522Q319.64206 267.97522 320.70456 268.74866Q321.76706 269.5221 322.2358 271.11584ZM324.01776 278.05334L324.01776 264.4596L326.62714 264.4596L326.62714 278.05334L324.01776 278.05334ZM331.1542 271.2096L328.79483 270.7721Q329.18546 269.35022 330.16202 268.66272Q331.13858 267.97522 333.06046 267.97522Q334.79483 267.97522 335.6542 268.38928Q336.51358 268.80334 336.85733 269.43616Q337.20108 270.06897 337.20108 271.7721L337.16983 274.81897Q337.16983 276.11584 337.29483 276.73303Q337.41983 277.35022 337.76358 278.05334L335.18546 278.05334Q335.0917 277.78772 334.93546 277.28772Q334.87296 277.05334 334.8417 276.97522Q334.18546 277.63147 333.41983 277.95178Q332.6542 278.2721 331.79483 278.2721Q330.2792 278.2721 329.3964 277.45178Q328.51358 276.63147 328.51358 275.36584Q328.51358 274.5221 328.91202 273.87366Q329.31046 273.22522 330.0292 272.87366Q330.74796 272.5221 332.10733 272.25647Q333.93546 271.92834 334.63858 271.63147L334.63858 271.36584Q334.63858 270.61584 334.2714 270.29553Q333.9042 269.97522 332.87296 269.97522Q332.16983 269.97522 331.7792 270.24866Q331.38858 270.5221 331.1542 271.2096ZM334.63858 273.31897Q334.13858 273.49084 333.05264 273.72522Q331.9667 273.9596 331.63858 274.17834Q331.12296 274.53772 331.12296 275.10022Q331.12296 275.6471 331.5292 276.04553Q331.93546 276.44397 332.57608 276.44397Q333.2792 276.44397 333.91983 275.97522Q334.38858 275.61584 334.54483 275.11584Q334.63858 274.7721 334.63858 273.8346L334.63858 273.31897ZM338.67053 275.24084L341.2799 274.85022Q341.45178 275.60022 341.9596 275.99866Q342.4674 276.3971 343.38928 276.3971Q344.38928 276.3971 344.9049 276.0221Q345.24866 275.75647 345.24866 275.31897Q345.24866 275.0221 345.06116 274.8346Q344.87366 274.6471 344.18616 274.49084Q341.04553 273.78772 340.18616 273.22522Q339.0299 272.42834 339.0299 271.00647Q339.0299 269.72522 340.03772 268.85022Q341.04553 267.97522 343.17053 267.97522Q345.20178 267.97522 346.17834 268.63147Q347.1549 269.28772 347.5299 270.5846L345.07678 271.03772Q344.92053 270.4596 344.47522 270.1549Q344.0299 269.85022 343.2174 269.85022Q342.18616 269.85022 341.74866 270.1471Q341.45178 270.35022 341.45178 270.66272Q341.45178 270.94397 341.70178 271.1471Q342.06116 271.3971 344.13928 271.87366Q346.2174 272.35022 347.04553 273.03772Q347.87366 273.72522 347.87366 274.97522Q347.87366 276.3346 346.74084 277.30334Q345.60803 278.2721 343.38928 278.2721Q341.37366 278.2721 340.20178 277.4596Q339.0299 276.6471 338.67053 275.24084ZM349.04626 275.24084L351.65564 274.85022Q351.8275 275.60022 352.33533 275.99866Q352.84314 276.3971 353.765 276.3971Q354.765 276.3971 355.28064 276.0221Q355.6244 275.75647 355.6244 275.31897Q355.6244 275.0221 355.4369 274.8346Q355.2494 274.6471 354.5619 274.49084Q351.42126 273.78772 350.5619 273.22522Q349.40564 272.42834 349.40564 271.00647Q349.40564 269.72522 350.41345 268.85022Q351.42126 267.97522 353.54626 267.97522Q355.5775 267.97522 356.55408 268.63147Q357.53064 269.28772 357.90564 270.5846L355.4525 271.03772Q355.29626 270.4596 354.85095 270.1549Q354.40564 269.85022 353.59314 269.85022Q352.5619 269.85022 352.1244 270.1471Q351.8275 270.35022 351.8275 270.66272Q351.8275 270.94397 352.0775 271.1471Q352.4369 271.3971 354.515 271.87366Q356.59314 272.35022 357.42126 273.03772Q358.2494 273.72522 358.2494 274.97522Q358.2494 276.3346 357.11658 277.30334Q355.98376 278.2721 353.765 278.2721Q351.7494 278.2721 350.5775 277.4596Q349.40564 276.6471 349.04626 275.24084ZM359.60947 282.05334Q360.3751 280.3971 360.6954 279.51428Q361.01572 278.63147 361.28134 277.48303Q361.54697 276.3346 361.67978 275.30334Q361.8126 274.2721 361.8126 273.17834Q361.8126 270.97522 361.33603 269.00647Q360.85947 267.03772 359.59384 264.22522L361.35947 264.22522Q362.76572 266.2096 363.53915 268.45178Q364.3126 270.69397 364.3126 272.99084Q364.3126 274.92834 363.70322 277.1471Q363.0001 279.63147 361.40634 282.05334L359.60947 282.05334Z" fill-rule="nonzero"></path><path fill="#cfe2f3" stroke="#000000" stroke-width="2.0" stroke-linejoin="round" stroke-linecap="butt" d="M483.8399 215.96588L578.9895 215.96588L578.9895 306.3596L483.8399 306.3596Z" fill-rule="nonzero"></path><path fill="#000000" d="M530.9351 267.32678L528.51324 267.32678L528.51324 265.87366Q527.9039 266.7174 527.08356 267.13147Q526.26324 267.54553 525.4351 267.54553Q523.732 267.54553 522.52106 266.17834Q521.3101 264.81116 521.3101 262.35803Q521.3101 259.85803 522.4898 258.55334Q523.6695 257.24866 525.4664 257.24866Q527.1226 257.24866 528.32574 258.62366L528.32574 253.73305L530.9351 253.73305L530.9351 267.32678ZM523.9664 262.18616Q523.9664 263.76428 524.4039 264.4674Q525.0445 265.48303 526.1695 265.48303Q527.07574 265.48303 527.70074 264.7174Q528.32574 263.95178 528.32574 262.43616Q528.32574 260.73303 527.7164 259.99084Q527.107 259.24866 526.1539 259.24866Q525.2164 259.24866 524.5914 259.98303Q523.9664 260.7174 523.9664 262.18616ZM532.0342 267.32678L535.5967 262.24866L532.1904 257.4674L535.3623 257.4674L537.1123 260.18616L538.9404 257.4674L542.0029 257.4674L538.6748 262.13928L542.3154 267.32678L539.1123 267.32678L537.1123 264.2799L535.08105 267.32678L532.0342 267.32678Z" fill-rule="nonzero"></path><path stroke="#000000" stroke-width="2.0" stroke-linejoin="round" stroke-linecap="butt" d="M278.3924 417.02362L327.7213 317.11942" fill-rule="evenodd"></path><path fill="#000000" stroke="#000000" stroke-width="2.0" stroke-linecap="butt" d="M330.68338 318.58197L331.73965 308.98123L324.75925 315.65686Z" fill-rule="evenodd"></path><path stroke="#000000" stroke-width="2.0" stroke-linejoin="round" stroke-linecap="butt" d="M193.61679 371.82678L322.17206 311.46014" fill-rule="evenodd"></path><path fill="#000000" stroke="#000000" stroke-width="2.0" stroke-linecap="butt" d="M323.5762 314.45035L330.38757 307.60233L320.76794 308.46994Z" fill-rule="evenodd"></path><path stroke="#000000" stroke-width="2.0" stroke-linejoin="round" stroke-linecap="butt" d="M368.07086 137.9685L337.95126 205.01956" fill-rule="evenodd"></path><path fill="#000000" stroke="#000000" stroke-width="2.0" stroke-linecap="butt" d="M334.93787 203.66594L334.23218 213.29881L340.96466 206.3732Z" fill-rule="evenodd"></path><path stroke="#000000" stroke-width="2.0" stroke-linejoin="round" stroke-linecap="butt" d="M223.75066 114.18635L324.25272 207.78745" fill-rule="evenodd"></path><path fill="#000000" stroke="#000000" stroke-width="2.0" stroke-linecap="butt" d="M322.00128 210.20486L330.89453 213.9732L326.50415 205.37003Z" fill-rule="evenodd"></path><path stroke="#000000" stroke-width="2.0" stroke-linejoin="round" stroke-linecap="butt" d="M407.56955 261.16272L471.8399 261.16272" fill-rule="evenodd"></path><path fill="#000000" stroke="#000000" stroke-width="2.0" stroke-linecap="butt" d="M471.8399 264.4662L480.91608 261.16272L471.8399 257.85925Z" fill-rule="evenodd"></path><path fill="#cfe2f3" stroke="#000000" stroke-width="2.0" stroke-linejoin="round" stroke-linecap="butt" d="M388.68503 380.69028L537.7559 380.69028L537.7559 471.08398L388.68503 471.08398Z" fill-rule="nonzero"></path><path fill="#000000" d="M464.49124 428.5512L462.13187 428.5512Q462.11624 428.03558 462.11624 427.9262Q462.11624 426.76996 462.49905 426.02777Q462.88187 425.28558 464.0225 424.3559Q465.16312 423.4262 465.38187 423.14496Q465.72562 422.69183 465.72562 422.14496Q465.72562 421.37933 465.11624 420.84027Q464.50687 420.3012 463.47562 420.3012Q462.49124 420.3012 461.81937 420.8637Q461.1475 421.4262 460.8975 422.58246L458.50687 422.28558Q458.60062 420.62933 459.92093 419.47308Q461.24124 418.31683 463.36624 418.31683Q465.61624 418.31683 466.94437 419.4887Q468.2725 420.66058 468.2725 422.22308Q468.2725 423.08246 467.7803 423.84808Q467.28812 424.6137 465.69437 425.94183Q464.86624 426.62933 464.67093 427.0512Q464.47562 427.47308 464.49124 428.5512ZM462.13187 432.0512L462.13187 429.44183L464.72562 429.44183L464.72562 432.0512L462.13187 432.0512Z" fill-rule="nonzero"></path><path stroke="#000000" stroke-width="2.0" stroke-linejoin="round" stroke-linecap="butt" d="M463.22046 380.69028L343.46802 312.31" fill-rule="evenodd"></path><path fill="#000000" stroke="#000000" stroke-width="2.0" stroke-linecap="butt" d="M345.1061 309.44125L335.58627 307.8094L341.82996 315.1787Z" fill-rule="evenodd"></path><path fill="#cfe2f3" stroke="#000000" stroke-width="2.0" stroke-linejoin="round" stroke-linecap="butt" d="M607.8218 215.96588L787.00287 215.96588L787.00287 306.3596L607.8218 306.3596Z" fill-rule="nonzero"></path><path fill="#000000" d="M657.3118 253.73305L662.32745 253.73305Q664.0306 253.73305 664.9212 253.98305Q666.1087 254.34242 666.9681 255.24086Q667.82745 256.13928 668.27277 257.44397Q668.7181 258.74866 668.7181 260.6549Q668.7181 262.3424 668.2962 263.54553Q667.7806 265.0299 666.8431 265.95178Q666.1243 266.6549 664.9056 267.04553Q663.9993 267.32678 662.4837 267.32678L657.3118 267.32678L657.3118 253.73305ZM660.0618 256.0299L660.0618 265.0299L662.1087 265.0299Q663.2493 265.0299 663.76495 264.9049Q664.4368 264.73303 664.8743 264.3346Q665.3118 263.93616 665.5931 263.0221Q665.8743 262.10803 665.8743 260.5299Q665.8743 258.95178 665.5931 258.10803Q665.3118 257.26428 664.8118 256.79553Q664.3118 256.32678 663.5462 256.1549Q662.9681 256.0299 661.2962 256.0299L660.0618 256.0299ZM672.7222 260.48303L670.36285 260.04553Q670.7535 258.62366 671.73004 257.93616Q672.7066 257.24866 674.6285 257.24866Q676.36285 257.24866 677.2222 257.66272Q678.0816 258.07678 678.42535 258.7096Q678.7691 259.3424 678.7691 261.04553L678.73785 264.0924Q678.73785 265.38928 678.86285 266.00647Q678.98785 266.62366 679.3316 267.32678L676.7535 267.32678Q676.6597 267.06116 676.5035 266.56116Q676.441 266.32678 676.4097 266.24866Q675.7535 266.9049 674.98785 267.22522Q674.2222 267.54553 673.36285 267.54553Q671.8472 267.54553 670.9644 266.72522Q670.0816 265.9049 670.0816 264.63928Q670.0816 263.79553 670.48004 263.1471Q670.8785 262.49866 671.5972 262.1471Q672.316 261.79553 673.67535 261.5299Q675.5035 261.20178 676.2066 260.9049L676.2066 260.63928Q676.2066 259.88928 675.8394 259.56897Q675.4722 259.24866 674.441 259.24866Q673.73785 259.24866 673.3472 259.5221Q672.9566 259.79553 672.7222 260.48303ZM676.2066 262.5924Q675.7066 262.76428 674.62067 262.99866Q673.5347 263.23303 673.2066 263.45178Q672.691 263.81116 672.691 264.37366Q672.691 264.92053 673.0972 265.31897Q673.5035 265.7174 674.1441 265.7174Q674.8472 265.7174 675.48785 265.24866Q675.9566 264.88928 676.11285 264.38928Q676.2066 264.04553 676.2066 263.10803L676.2066 262.5924ZM681.14484 267.32678L681.14484 253.73305L683.7542 253.73305L683.7542 267.32678L681.14484 267.32678ZM689.0469 267.32678L685.0781 257.4674L687.8125 257.4674L689.65625 262.49866L690.2031 264.18616Q690.4219 263.54553 690.46875 263.3424Q690.59375 262.92053 690.75 262.49866L692.625 257.4674L695.2969 257.4674L691.3906 267.32678L689.0469 267.32678ZM696.70386 256.13928L696.70386 253.73305L699.31323 253.73305L699.31323 256.13928L696.70386 256.13928ZM696.70386 267.32678L696.70386 257.4674L699.31323 257.4674L699.31323 267.32678L696.70386 267.32678ZM701.7934 267.32678L701.7934 253.73305L704.4028 253.73305L704.4028 260.93616L707.4653 257.4674L710.6684 257.4674L707.2934 261.07678L710.9028 267.32678L708.1059 267.32678L705.6215 262.9049L704.4028 264.17053L704.4028 267.32678L701.7934 267.32678ZM715.7629 267.32678L710.8879 253.73305L713.87225 253.73305L717.30975 263.79553L720.6379 253.73305L723.55975 253.73305L718.68475 267.32678L715.7629 267.32678ZM724.69086 267.32678L724.69086 253.73305L728.80023 253.73305L731.269 262.99866L733.7065 253.73305L737.8315 253.73305L737.8315 267.32678L735.2846 267.32678L735.2846 256.62366L732.5815 267.32678L729.94086 267.32678L727.23773 256.62366L727.23773 267.32678L724.69086 267.32678Z" fill-rule="nonzero"></path><path stroke="#000000" stroke-width="2.0" stroke-linejoin="round" stroke-linecap="butt" d="M578.9895 261.16272L595.8218 261.16272" fill-rule="evenodd"></path><path fill="#000000" stroke="#000000" stroke-width="2.0" stroke-linecap="butt" d="M595.8218 264.4662L604.89795 261.16272L595.8218 257.85925Z" fill-rule="evenodd"></path></svg>

